# xmcd
#
# Track frame offsets:
# 182
# 1895
# 20625
# 42355
# 62377
# 82590
# 102147
# 105507
# 125825
# 146785
# 168387
# 187552
# 210745
#
# Disc length: 3097 seconds
#
#
# Revision: 0
# Processed by: cddbd v1.4PL0 Copyright (c) Steve Scherf et al.
# Submitted via: FreeRIP 2.35 
#
DISCID=9d0c170d
DTITLE=Auto and Cherokee - Naked Music
DYEAR=1900
DGENRE=Rock and Roll
TTITLE0=Introduction to our World
TTITLE1=Naked Music
TTITLE2=Taste
TTITLE3=Indian Music
TTITLE4=So Good To Be In Love
TTITLE5=Best Of Friends
TTITLE6=Interlude-Breed Of The Apple Children
TTITLE7=She Eats Like A Lion
TTITLE8=Hack Your Bed
TTITLE9=Hook You Up
TTITLE10=Forever Yours
TTITLE11=Homeless
TTITLE12=Taste (Street Single Mix)
EXTD=
EXTT0=
EXTT1=
EXTT2=
EXTT3=
EXTT4=
EXTT5=
EXTT6=
EXTT7=
EXTT8=
EXTT9=
EXTT10=
EXTT11=
EXTT12=
PLAYORDER=
